<?xml version="1.0" encoding="UTF-8" standalone="no"?>
<!-- Created with Inkscape (http://www.inkscape.org/) -->

<svg
   width="210mm"
   height="297mm"
   viewBox="0 0 210 297"
   version="1.1"
   id="svg5"
   xml:space="preserve"
   inkscape:export-filename="logo.svg"
   inkscape:export-xdpi="96"
   inkscape:export-ydpi="96"
   xmlns:inkscape="http://www.inkscape.org/namespaces/inkscape"
   xmlns:sodipodi="http://sodipodi.sourceforge.net/DTD/sodipodi-0.dtd"
   xmlns="http://www.w3.org/2000/svg"
   xmlns:svg="http://www.w3.org/2000/svg"><sodipodi:namedview
     id="namedview7"
     pagecolor="#505050"
     bordercolor="#ffffff"
     borderopacity="1"
     inkscape:showpageshadow="0"
     inkscape:pageopacity="0"
     inkscape:pagecheckerboard="1"
     inkscape:deskcolor="#505050"
     inkscape:document-units="mm"
     showgrid="false" /><defs
     id="defs2" /><g
     inkscape:label="Layer 1"
     inkscape:groupmode="layer"
     id="layer1"><path
       style="fill:#000000;stroke-width:0.264583"
       d="m 104.11126,179.35113 c -6.765516,-0.45428 -13.373136,-2.70251 -19.099448,-6.49854 -9.201192,-6.09958 -15.578083,-15.91732 -17.413408,-26.80937 -0.560643,-3.32723 -0.558506,-9.65823 0.0044,-12.96459 2.64447,-15.53356 13.900417,-27.89506 29.232443,-32.10366 6.338053,-1.739781 14.293113,-1.739951 20.637493,-4.7e-4 11.62613,3.18764 20.89084,10.91025 25.93578,21.61884 2.59339,5.50483 3.73009,10.66657 3.73652,16.96757 0.006,6.28341 -1.12628,11.427 -3.73652,16.96758 -7.10635,15.08419 -22.386,23.95814 -39.29724,22.82262 z m 10.48987,-17.12018 c 5.19892,-1.33326 8.59276,-3.12115 11.66405,-6.14468 1.89919,-1.86966 2.48282,-2.64755 3.28068,-4.37271 0.83491,-1.80526 0.98851,-2.44042 1.09932,-4.54586 0.085,-1.61584 0.23377,-2.4474 0.43773,-2.4474 0.43554,0 1.85002,-1.54486 2.42254,-2.64583 0.68282,-1.31309 0.64476,-3.78883 -0.0793,-5.15938 -1.62134,-3.06894 -4.94262,-4.12136 -8.04314,-2.54862 l -1.48244,0.75195 -1.69257,-1.02019 c -2.75965,-1.66339 -6.53103,-2.92411 -10.19419,-3.40777 -1.14494,-0.15117 -2.3895,-0.33567 -2.76569,-0.41 l -0.68399,-0.13513 0.33124,-1.6422 c 0.18218,-0.90321 0.50739,-2.47564 0.72269,-3.49429 0.2153,-1.01864 0.5276,-2.50692 0.694,-3.30729 0.70073,-3.37048 0.8365,-3.70696 1.43943,-3.56743 0.30903,0.0715 1.99062,0.43142 3.73687,0.79977 1.74625,0.36835 3.36843,0.72834 3.60486,0.79996 0.23643,0.0716 0.63569,0.66918 0.88726,1.3279 0.9321,2.44067 4.13024,3.45053 6.2745,1.98127 3.44097,-2.3578 1.8986,-7.69147 -2.22419,-7.69147 -1.48103,0 -2.10886,0.26339 -3.28952,1.38001 l -0.8325,0.78736 -4.46952,-0.9514 c -4.86598,-1.03578 -5.70357,-1.12095 -6.10381,-0.62066 -0.14553,0.1819 -0.58405,1.87855 -0.97451,3.77032 -1.29656,6.28183 -2.18197,10.19134 -2.34503,10.3544 -0.0535,0.0535 -1.38797,0.27846 -2.96549,0.4999 -4.484437,0.6295 -8.349783,1.89544 -11.208418,3.67085 l -1.421363,0.88277 -1.489054,-0.7553 c -2.324037,-1.17883 -4.379201,-0.95465 -6.570481,0.71672 -2.926902,2.23246 -2.716533,7.28283 0.384756,9.23691 0.802233,0.50547 0.840288,0.60697 0.850024,2.26708 0.02126,3.6249 1.328806,6.40519 4.474342,9.51396 3.058909,3.02315 6.576653,4.87216 11.543142,6.06735 3.028912,0.72891 3.475612,0.76406 8.466662,0.66618 3.37326,-0.0661 5.0038,-0.21793 6.52112,-0.60705 z m -11.01904,-4.80679 c -1.94975,-0.34758 -3.898924,-1.05742 -5.032772,-1.8328 -1.197256,-0.81874 -1.591768,-1.38746 -1.367631,-1.97155 0.182372,-0.47526 1.37487,-0.59387 1.64102,-0.16323 0.637235,1.03107 5.353463,2.37622 8.331263,2.37622 3.00304,0 6.84705,-1.07261 8.24641,-2.30104 0.68665,-0.60278 1.67547,-0.34576 1.67547,0.4355 0,0.90972 -1.77617,2.19545 -4.01496,2.90633 -2.04959,0.65081 -7.22895,0.95165 -9.4788,0.55057 z m -7.283982,-10.12417 c -3.045915,-1.53875 -3.205171,-5.38865 -0.290663,-7.02669 1.891733,-1.06321 3.858897,-0.63343 5.210285,1.13832 1.47964,1.93991 0.71718,4.83067 -1.565602,5.93574 -1.433521,0.69396 -1.899611,0.68737 -3.35402,-0.0474 z m 18.336812,0.0415 c -1.46695,-0.72613 -2.25034,-2.00597 -2.25034,-3.67642 0,-3.08275 3.32496,-4.95641 5.96233,-3.35984 1.39265,0.84305 2.03237,1.90704 2.03448,3.38377 0.002,1.57653 -0.81868,2.82651 -2.37155,3.611 -1.45725,0.73618 -1.95903,0.74234 -3.37492,0.0415 z"
       id="path157" /></g></svg>
