<svg width="148mm" height="48mm" version="1.1" viewBox="0 0 148 48" xmlns="http://www.w3.org/2000/svg">
 <g transform="matrix(.18858 0 0 .18858 77.642 -90.91)">
  <path d="m-231.4 731.78c-2.6382-0.17571-8.7828-1.1703-11.774-1.9057-17.514-4.3061-33.271-15.367-44.503-31.241-16.641-23.518-21.159-55.34-11.852-83.476 11.152-33.714 40.511-57.001 71.966-57.083 11.164-0.0288 22.43 2.7412 33.602 8.2618 22.136 10.938 37.694 31.084 42.826 55.453 1.0601 5.0338 1.5656 9.2288 1.5921 13.211 0.021 3.1188-0.071 4.0363-0.5802 5.8059-2.0628 7.1672-7.5084 12.585-14.506 14.432-2.0715 0.54677-2.2783 0.54881-54.136 0.53446l-52.057-0.0144v0.63814c0 0.98513 0.7499 4.803 1.4621 7.4435 3.0468 11.297 10.476 21.398 20.522 27.903 5.9995 3.8849 12.73 6.3676 19.768 7.2914 7.9051 1.0376 20.275-2.1611 28.887-7.4698 2.816-1.736 6.342-4.4392 9.242-7.0854 1.3695-1.2496 3.2149-2.6733 4.1011-3.1638 4.9466-2.7381 11.041-2.9335 16.262-0.52128 1.4911 0.68895 2.4095 1.3638 3.8423 2.8237 5.2615 5.3608 6.3898 13.112 2.8906 19.857-0.7979 1.5381-1.7546 2.6725-4.9683 5.8913-4.1021 4.1085-7.0655 6.5572-11.653 9.629-10.686 7.1553-22.983 11.467-36.248 12.711-2.5834 0.24217-11.483 0.28667-14.684 0.0734zm47.197-105.58c-0.5218-2.1884-2.1378-6.6234-3.3007-9.0584-6.2844-13.159-18.401-22.573-33.08-25.7-7.2129-1.5368-15.364-0.12717-23.913 4.1355-9.1778 4.5762-16.848 12.434-21.191 21.708-1.1175 2.3865-2.8021 7.146-3.1084 8.7824l-0.1609 0.8599h84.928zm118.63 105.5c-5.9464-0.53211-12.808-2.0628-18.358-4.0951-4.1009-1.5018-11.269-5.1556-15.177-7.7359-12.187-8.0476-21.833-19.107-28.677-32.879-5.879-11.83-9.1603-24.649-9.6507-37.703-0.4631-12.324 1.1288-23.798 4.8089-34.66 10.094-29.793 34.206-51.38 62.358-55.827 4.8007-0.75834 11.038-1.0366 15.698-0.70042 13.282 0.95823 24.607 5.718 34.457 14.481l2.2201 1.9752 0.144-76.081 0.7089-1.9407c1.0193-2.7902 2.208-4.6111 4.3199-6.6172 2.1922-2.0824 4.3641-3.2994 7.1674-4.0164 8.3056-2.1242 16.871 2.7029 19.496 10.987l0.5868 1.8521v214.84l-0.6173 1.8521c-0.9166 2.7503-2.0374 4.5483-4.1254 6.6182-4.0243 3.9894-9.7739 5.5276-15.34 4.1039-3.0623-0.78322-5.0146-1.9275-7.4387-4.3599-1.7465-1.7524-2.3072-2.5337-3.1705-4.4179l-1.0489-2.289-1.82 1.717c-7.7709 7.3306-18.371 12.458-29.807 14.418-3.5027 0.60028-12.494 0.85632-16.737 0.47662zm11.71-32.672c6.2702-0.91919 12.922-3.7268 18.264-7.7091 2.4417-1.8203 6.9178-6.2152 8.8548-8.6943 6.4294-8.2286 10.437-18.026 11.909-29.115 0.5539-4.1731 0.5545-12.199 0-16.394-1.8358-13.917-7.5623-25.779-16.629-34.447-6.1956-5.923-14.137-10.019-21.949-11.32-5.265-0.87689-11.995-0.45896-17.296 1.0741-15.897 4.5972-29.041 20.194-32.983 39.137-1.1131 5.3495-1.3595 7.8879-1.3488 13.891 0.019 10.339 1.8735 18.55 6.1861 27.384 5.0602 10.366 12.537 18.15 21.84 22.739 4.323 2.1324 7.8105 3.2171 12.7 3.95 1.3361 0.20026 7.7907-0.10615 10.451-0.49615zm158.75 32.667c-10.97-1.0349-21.147-4.3642-30.727-10.053-5.168-3.0687-9.5698-6.4742-14.352-11.104-21.488-20.802-31.114-52.926-25.131-83.873 5.0515-26.132 21.246-48.762 43.224-60.399 7.4801-3.9608 15.754-6.5997 24.342-7.7635 4.0864-0.55377 13.558-0.62738 17.198-0.13365 11.762 1.5953 23.16 6.8867 31.226 14.496 0.9782 0.92276 1.83 1.6778 1.8929 1.6778 0.063 0 0.1168-16.877 0.1198-37.505 0-29.492 0.078-37.816 0.3435-38.96 1.4012-6.0296 6.4667-11.057 12.41-12.317 7.2676-1.5403 14.623 1.9326 17.88 8.4424 1.9038 3.8049 1.744-6.4496 1.744 111.91 0 118.68 0.168 108.08-1.7739 111.94-1.1874 2.3604-4.2685 5.4925-6.6097 6.719-4.5535 2.3856-10.102 2.5097-14.687 0.32842-3.46-1.646-6.6517-4.9714-7.9484-8.2813-0.3278-0.83675-0.6561-1.5197-0.7296-1.5177-0.073 3e-3 -1.0862 0.84659-2.2503 1.8768-8.5518 7.568-18.714 12.373-29.898 14.137-3.1546 0.49745-12.66 0.71774-16.272 0.37706zm12.662-32.821c19.247-3.2508 34.605-21.146 38.049-44.334 0.5875-3.9558 0.6624-14.128 0.1303-17.688-1.4743-9.8638-4.6794-18.502-9.5358-25.7-6.5951-9.775-15.533-16.45-25.476-19.027-4.9677-1.2873-11.416-1.5918-16.28-0.76866-13.494 2.2836-25.617 11.929-32.572 25.916-4.1143 8.2741-6.0711 16.299-6.3276 25.951-0.2259 8.503 0.6534 14.782 3.0984 22.123 2.8369 8.5175 6.9477 15.415 12.646 21.217 7.3259 7.4603 15.161 11.513 25.063 12.962 1.5878 0.23247 8.276-0.1561 11.207-0.65106zm-512.33 29.626c-6.1339-1.3982-11.005-6.1638-12.575-12.302-0.5128-2.005-0.5217-3.2246-0.5172-70.988 0-59.333 0.058-69.201 0.3897-70.766 0.9755-4.6043 4.3231-8.8799 8.6015-10.986 6.5227-3.2108 13.686-2.0242 18.81 3.1161 3.1757 3.186 4.7385 6.9315 4.7385 11.357v2.2194l2.5626-2.6952c13.014-13.687 32.093-20.968 50.669-19.336 7.8604 0.6906 11.129 1.8813 14.514 5.2866 3.3022 3.3226 4.7509 6.7992 4.7509 11.401 0 4.391-1.4027 7.9327-4.4001 11.11-2.0641 2.188-3.9691 3.4111-6.7857 4.3566-2.2048 0.74013-2.5679 0.76272-11.039 0.68667-2.7818-0.025-5.4695 0.11501-7.4083 0.38587-22.459 3.1375-40.011 21.129-42.586 43.653-0.1742 1.5237-0.2744 16.293-0.2783 41.01-0.01 33.704-0.058 38.848-0.4102 40.349-1.3858 5.8974-6.1213 10.631-12.028 12.023-1.8721 0.44127-5.3332 0.49946-7.0074 0.11782zm633.54-0.4337c-7.1907-0.51745-13.209-5.4935-14.947-12.358-0.3502-1.3835-0.3992-9.1754-0.3992-63.524 0-61.051 0.01-61.977 0.5284-64.013 0.7081-2.7687 2.1083-5.1944 4.2135-7.2996 2.1052-2.1052 4.5309-3.5053 7.2996-4.2135 9.0549-2.3158 18.102 3.1904 20.093 12.228 0.3842 1.7447 0.4176 7.8387 0.351 64.105l-0.074 62.177-0.5834 1.528c-2.0592 5.394-5.7033 9.0566-10.572 10.627-1.4845 0.47863-4.4338 0.84961-5.9099 0.74338zm80.698-0.48266c-4.5145-1.1856-8.5932-4.5112-10.521-8.5788-0.5864-1.2369-1.2184-2.9038-1.4045-3.7042-0.2692-1.1581-0.3423-13.987-0.3578-62.839l-0.02-61.383-8.7312-0.13823c-8.2758-0.13101-8.8092-0.16943-10.225-0.7363-4.46-1.7857-7.4535-5.0389-8.7952-9.5584-0.4994-1.6824-0.5714-5.9073-0.1364-8.0088 1.034-4.9947 5.2011-9.3596 10.172-10.654 1.241-0.32323 3.2793-0.40512 10.083-0.40512h8.5278l0.094-13.295c0.084-11.934 0.1423-13.444 0.5702-14.751 1.4819-4.5232 4.539-8.1672 8.39-10 2.7612-1.3145 4.5343-1.7381 7.2493-1.7319 7.3787 0.0168 13.954 5.2093 15.888 12.547 0.3884 1.4733 0.4512 3.3568 0.4735 14.2l0.026 12.502h7.8564c9.0796 0 10.842 0.22399 13.738 1.7455 4.0227 2.1139 6.6406 5.8394 7.3872 10.513 0.3754 2.3499-0.052 6.2741-0.9187 8.435-1.2744 3.1774-4.0552 6.1375-7.1186 7.5774-2.5552 1.2011-4 1.3546-12.792 1.3587l-8.2681 4e-3v61.582c0 53.585-0.055 61.799-0.3976 63.252-1.3831 5.8668-6.0369 10.596-11.891 12.084-2.0054 0.50975-6.9056 0.50083-8.8741-0.0161zm-84.424-166.54c-9.206-1.5581-17.076-7.4109-21.164-15.74-5.6672-11.546-3.2574-24.999 6.0509-33.78 3.5108-3.312 7.9079-5.7473 12.68-7.0229 2.3083-0.61704 3.0712-0.69149 7.0848-0.69149 4.0359 0 4.7697 0.0725 7.1437 0.70594 2.9887 0.79742 7.744 3.03 9.9219 4.6582 14.322 10.707 15.877 31.276 3.3122 43.798-4.2373 4.2227-9.5905 6.9887-15.598 8.0592-1.7722 0.31583-7.5936 0.3235-9.4316 0.0124z" style="stroke-width:.26458"/>
 </g>
</svg>
