<svg width="32mm" height="32mm" version="1.1" viewBox="0 0 32 32" xmlns="http://www.w3.org/2000/svg">
 <path d="m4.0784 86.942v-0.79958h24.787v1.5992h-24.787zm0-7.9959v-0.79959h24.787v1.5992h-24.787zm0-7.9959v-0.79959h24.787v1.5992h-24.787zm0-7.9959v-0.79959h24.787v1.5992h-24.787zm-1.9063-35.629c-0.72929-1.9005-0.57391-22.175 0.17903-23.361l0.64698-1.0194 27.067 0.43973v24.787l-27.401 0.43676zm26.694-3.5512v-3.1984h-25.587v6.3967h25.587zm0-7.9959v-3.1984h-25.587v6.3967h25.587zm0-7.9959v-3.1984h-25.587v6.3967h25.587zm-26.845-37.846c-0.23272-0.60647-0.31466-3.4036-0.18208-6.2158l0.24106-5.1131h27.986v11.994l-27.621 0.43771zm0-15.992c-0.23272-0.60646-0.31466-3.4036-0.18208-6.2158l0.24106-5.1131h27.986v11.994l-27.621 0.43771z" style="stroke-width:.79959"/>
</svg>
