<svg version="1.1" viewBox="0 0 20 20" xmlns="http://www.w3.org/2000/svg">
 <path d="m3.9772 18.689c-5.2344-3.4502-5.1916-13.979 0.07028-17.326 2.668-1.6968 9.2568-1.6291 11.781 0.121 2.791 1.9354 4.0569 4.6043 4.0569 8.553 0 3.9487-1.2659 6.6173-4.0569 8.553-2.5275 1.7527-9.2562 1.8088-11.85 0.09896zm7.6734-1.1283c4.2216-3.4171 4.5175-10.344 0.61346-14.362-4.3864-4.5137-11.181-0.35816-11.181 6.8383 0 6.6136 6.2211 11.042 10.568 7.5236zm-5.4896-2.7593c-0.65504-0.27157-1.4523-0.99631-1.7718-1.6105-0.9021-1.7345-0.69856-5.4081 0.37323-6.7362 1.0774-1.3353 3.8437-2.0378 4.9762-1.2637 1.0955 0.7487 0.2378 1.7609-1.4921 1.7609-1.9494 0-2.8027 0.93936-2.8027 3.0854 0 2.146 0.85332 3.0854 2.8027 3.0854 1.7217 0 2.5959 1.0177 1.4921 1.737-0.92698 0.60418-2.0234 0.58639-3.5777-0.05805zm9.9192 2.0737c4.0546-4.1723 3.5478-11.589-0.98616-14.434-2.475-1.5529-2.8758-1.3631-1.2695 0.6011 3.348 4.0943 3.2027 10.557-0.32421 14.42-1.9718 2.1598 0.44497 1.6097 2.5799-0.58721z" style="stroke-width:.55301"/>
</svg>
