<svg version="1.1" viewBox="0 0 20 20" xmlns="http://www.w3.org/2000/svg">
 <g transform="matrix(1.0589 0 0 .92304 -136.03 -45.621)" aria-label="r">
  <path d="m138.87 57.307q-0.22222-0.12903-0.48744-0.18637-0.25805-0.06451-0.57345-0.06451-1.1182 0-1.7204 0.73115-0.59496 0.72398-0.59496 2.0859v4.2292h-1.3261v-8.0283h1.3261v1.2473q0.41575-0.73115 1.0824-1.0824 0.66664-0.35841 1.62-0.35841 0.13619 0 0.30106 0.0215 0.16487 0.01434 0.36558 0.05018zm4.7085-3.8732-5.1146 14.345c-0.42988-0.1976-0.85974-0.3952-1.2896-0.5928 1.7539-4.9193 3.5078-9.8387 5.2618-14.758 0.38083 0.33523 0.76165 0.67048 1.1425 1.0057zm-5.5763-2.4819c-4.3383-0.14333-8.3212 4.3266-8.2686 9.3131-0.0825 4.3236 2.6869 8.5416 6.4201 9.4049 3.5674 0.94592 7.6211-1.098 9.2142-4.9355 1.6068-3.6263 1.0004-8.5282-1.7492-11.207-0.87602-0.57092-1.525-1.5268-2.4932-1.8981-0.9921-0.43923-2.0603-0.66677-3.1233-0.67692zm0-1.2493c4.7532-0.13464 9.1562 4.5797 9.3367 10.04 0.27044 4.5979-2.2921 9.2608-6.1267 10.756-3.4755 1.4712-7.6956 0.36147-10.138-2.8787-2.5126-3.1594-3.1978-8.1047-1.46-11.929 1.5407-3.5783 4.8807-6.0683 8.3882-5.988z" stroke-width="2.3501"/>
 </g>
</svg>
