<svg version="1.1" viewBox="0 0 20 20" xmlns="http://www.w3.org/2000/svg">
 <g transform="matrix(.38693 0 0 .32432 32.957 -2.7389)" stroke="#000" stroke-width=".612" aria-label="3">
  <path d="m-65.826 51.918q0.77784 0.1663 1.2124 0.69201 0.43988 0.52572 0.43988 1.2982 0 1.1855-0.8154 1.8346-0.8154 0.6491-2.3174 0.6491-0.50426 0-1.0407-0.10192-0.53108-0.09656-1.0997-0.29504v-1.0461q0.45061 0.26286 0.98706 0.39697t1.1212 0.13411q1.0192 0 1.5503-0.40233 0.53644-0.40233 0.53644-1.1694 0-0.70811-0.49889-1.1051-0.49353-0.40233-1.3787-0.40233h-0.93341v-0.8905h0.97633q0.7993 0 1.2231-0.3165 0.42379-0.32187 0.42379-0.92269 0-0.61691-0.43988-0.94414-0.43452-0.3326-1.2499-0.3326-0.44525 0-0.95487 0.09656t-1.1212 0.30041v-0.9656q0.61691-0.17166 1.1534-0.25749 0.54181-0.08583 1.0192-0.08583 1.2338 0 1.9527 0.56327 0.71884 0.5579 0.71884 1.5128 0 0.66519-0.38088 1.1265-0.38088 0.45598-1.0836 0.633zm-2.0731-9.2452h3.782v0.91789h-5.0855v-0.91789q0.61691-0.64252 1.6791-1.7224 1.0675-1.0853 1.3411-1.3984 0.52035-0.58853 0.7242-0.99348 0.20922-0.41035 0.20922-0.8045 0-0.64252-0.45062-1.0475-0.44525-0.40495-1.1641-0.40495-0.50962 0-1.0783 0.17818-0.56327 0.17818-1.207 0.53994v-1.1015q0.65446-0.26457 1.2231-0.39955 0.56863-0.13498 1.0407-0.13498 1.2446 0 1.9849 0.62632 0.7403 0.62633 0.7403 1.6738 0 0.49674-0.18776 0.94489-0.18239 0.44275-0.67056 1.0475-0.13411 0.15658-0.85295 0.90709-0.71884 0.74511-2.0278 2.0896zm-1.1899-13.594h1.7703v-6.1011l-1.9258 0.38567v-0.98561l1.9151-0.38567h1.0836v7.0867h1.7703v0.91062h-4.6134zm9.4949 21.874h15.249v3.0702h-15.249zm0-13.107h15.249v3.0702h-15.249zm0-13.107h15.249v3.0702h-15.249zm-21.395-15.088c-1.256 6.346e-4 -2.274 1.2152-2.2745 2.7136v9.2629c-4.55e-4 1.4992 1.0179 2.7151 2.2745 2.7157h3.5978v42.41c3.4e-4 1.4184 0.96405 2.5681 2.1529 2.5685h37.759c1.1889-4.06e-4 2.1526-1.1501 2.1529-2.5685v-54.502c-3.38e-4 -1.4184-0.96404-2.5681-2.1529-2.5685h-37.759c-0.13026 4.44e-5 -0.25699 0.018319-0.38088 0.0448-0.16625-0.046223-0.33695-0.07671-0.51499-0.076799zm8.7387 3.3344h32.312c1.0985-9.8e-5 1.9893 1.0617 1.9902 2.3723v48.3c8.1e-5 1.3114-0.89102 2.3745-1.9902 2.3744h-32.312c-1.0992 9.7e-5 -1.9903-1.063-1.9902-2.3744v-48.3c9.06e-4 -1.3105 0.89172-2.3723 1.9902-2.3723zm-7.1723 0.1728h1.7113c0.01048 2.9699 0.0035 5.3241 0 8.4863h-1.7113c-0.90108-7.92e-4 -1.6311-0.8727-1.6308-1.9477v-4.5909c-3.24e-4 -1.075 0.72971-1.9469 1.6308-1.9477z" stroke="#000" stroke-width=".612"/>
 </g>
</svg>
