<svg version="1.1" viewBox="0 0 20 20" xmlns="http://www.w3.org/2000/svg">
 <g transform="matrix(.15244 0 0 .15244 15.91 10.84)">
  <path d="m-33.709 53.784c-16.563-2.7756-33.045-14.651-42.764-30.811-3.1711-5.2729-2.5798-7.5124 4.4077-16.691 25.076-32.941 68.207-33.018 93.149-0.16517 7.0443 9.2787 7.7001 11.612 4.6642 16.595-13.603 22.329-37.405 34.768-59.457 31.072zm18.79-9.0602c11.417-2.9217 21.844-10.444 30.324-21.877 3.925-5.2918 3.925-4.6896 0-9.9814-22.952-30.944-58.722-30.944-81.674 0-3.925 5.2918-3.925 4.6896 0 9.9814 13.756 18.546 32.748 26.637 51.35 21.877zm-15.876-7.1475c-17.492-4.704-20.336-29.183-4.3792-37.698 13.586-7.2497 30.121 2.619 30.121 17.977 0 13.342-12.852 23.187-25.742 19.721zm8.4823-8.1082c5.9474-1.5869 9.8774-7.9699 8.6145-13.991-2.1707-10.349-15.695-13.037-21.655-4.3037-6.175 9.049 2.4327 21.125 13.04 18.295z" style="stroke-width:.41589"/>
  <path d="m-50.687-65.053c-17.035 0.03024-34.087 8.2852-46.625 24.756-6.9874 9.1791-7.5774 11.419-4.4062 16.691 1.2149 2.02 2.5341 3.9728 3.9473 5.8496 1.4132 1.8767 2.9186 3.676 4.5039 5.3906 1.5853 1.7146 3.251 3.3433 4.9824 4.877 1.7314 1.5337 5.3809 4.3066 5.3809 4.3066l6.7539-5.5996c-5.8054-3.8187-11.214-8.998-15.992-15.439-3.925-5.2918-3.925-4.6887 0-9.9805 22.952-30.944 58.722-30.944 81.674 0 1.7193 2.3179 2.8004 4.0184 2.8338 5.8256 3.8385 2.4408 9.2678-1.2448 8.453-2.1684-0.097209-0.66454-0.20546-2.3168-1.2101-3.9182-1.0046-1.6015-2.0091-3.681-3.7701-6.0007-12.471-16.426-29.49-24.62-46.525-24.59z" style="stroke-width:.41589"/>
  <path d="m-44.211-47.011c-3.2082-0.56458-6.6347-0.36438-10.054 0.79051-8.5678 2.8938-13.152 10.494-13.533 18.309-0.19102 3.9075 0.66954 7.8685 2.6075 11.322 1.2238 2.1229 5.2474-2.5136 8.2341-4.9512-3.0167-4.3593-3.2617-10.601 1.0404-15.098 7.3087-7.6397 20.21-2.7731 20.657 7.7916 0.02154 0.50762 0.0045 1.0112-0.04259 1.5095 4.2509 0.41688 8.1922 0.65644 7.9398-2.0798-0.23323-1.8837-0.72969-3.6855-1.449-5.3702-1.2674-2.9682-3.2257-5.5746-5.6534-7.63-2.7537-2.3314-6.1108-3.9532-9.7468-4.5931z" style="stroke-width:.41589"/>
 </g>
</svg>
